<mxfile host="app.diagrams.net">
  <diagram name="MER" id="MER-Diagram">
    <mxGraphModel dx="800" dy="600" grid="1" gridSize="10" guides="1" tooltips="1" connect="1" arrows="1" fold="1" page="1" pageScale="1" pageWidth="827" pageHeight="1169" math="0" shadow="0">
      <root>
        <mxCell id="0"/>
        <mxCell id="1" parent="0"/>

        <!-- Entidade Usuario -->
        <mxCell id="2" value="Usuario&#xa;- idUsuario (PK)&#xa;- nome&#xa;- email&#xa;- senha&#xa;- cpf&#xa;- telefone" style="shape=rectangle;rounded=1;whiteSpace=wrap;html=1;" vertex="1" parent="1">
          <mxGeometry x="40" y="60" width="180" height="120" as="geometry"/>
        </mxCell>

        <!-- Entidade Administrador -->
        <mxCell id="3" value="Administrador&#xa;- idAdministrador (PK)&#xa;- usuario&#xa;- senha&#xa;- email&#xa;- nome&#xa;- telefone&#xa;- acessoAdm" style="shape=rectangle;rounded=1;whiteSpace=wrap;html=1;" vertex="1" parent="1">
          <mxGeometry x="400" y="60" width="200" height="140" as="geometry"/>
        </mxCell>

        <!-- Entidade Denuncia -->
        <mxCell id="4" value="Denuncia&#xa;- idDenuncia (PK)&#xa;- tipoDenuncia&#xa;- descricaoDenuncia&#xa;- localizacao&#xa;- protocolo&#xa;- status&#xa;- dataCriacao&#xa;- anonima&#xa;- idUsuario (FK)&#xa;- idAdministrador (FK)" style="shape=rectangle;rounded=1;whiteSpace=wrap;html=1;" vertex="1" parent="1">
          <mxGeometry x="220" y="260" width="220" height="180" as="geometry"/>
        </mxCell>

        <!-- Entidade Notificacao -->
        <mxCell id="5" value="Notificacao&#xa;- idNotificacao (PK)&#xa;- mensagem&#xa;- modoSos&#xa;- idDenuncia (FK)" style="shape=rectangle;rounded=1;whiteSpace=wrap;html=1;" vertex="1" parent="1">
          <mxGeometry x="520" y="260" width="200" height="120" as="geometry"/>
        </mxCell>

        <!-- Entidade LocalizacaoTempoReal -->
        <mxCell id="6" value="LocalizacaoTempoReal&#xa;- idLocalizacao (PK)&#xa;- latitude&#xa;- longitude&#xa;- dataHora&#xa;- idNotificacao (FK)" style="shape=rectangle;rounded=1;whiteSpace=wrap;html=1;" vertex="1" parent="1">
          <mxGeometry x="780" y="260" width="220" height="140" as="geometry"/>
        </mxCell>

        <!-- Relacionamentos -->
        <mxCell id="7" edge="1" parent="1" source="2" target="4">
          <mxGeometry relative="1" as="geometry"/>
        </mxCell>
        <mxCell id="8" edge="1" parent="1" source="3" target="4">
          <mxGeometry relative="1" as="geometry"/>
        </mxCell>
        <mxCell id="9" edge="1" parent="1" source="4" target="5">
          <mxGeometry relative="1" as="geometry"/>
        </mxCell>
        <mxCell id="10" edge="1" parent="1" source="5" target="6">
          <mxGeometry relative="1" as="geometry"/>
        </mxCell>
      </root>
    </mxGraphModel>
  </diagram>
</mxfile>
